# xmcd
#
# Track frame offsets:
#	150
#	13360
#	27865
#	43245
#	56258
#	72052
#	83930
#	96877
#	109443
#	125291
#	136774
#	154388
#	170250
#	183235
#
# Disc length: 2641 seconds
#
# Revision: 1
# Processed by: cddbd v1.5.2PL0 Copyright (c) Steve Scherf et al.
# Submitted via: audiograbber 1.83.01
#
DISCID=b90a4f0e
DTITLE=Red Hot Cancers - Bluesabilly Rendezvous
DYEAR=1997
DGENRE=Bluesabilly
TTITLE0=Red Hot Cancers
TTITLE1=You'll Be Mine
TTITLE2=RHC-Shuffle (T-Bone-Shuffle)
TTITLE3=I Keep Forgettin'
TTITLE4=Cold Shot
TTITLE5=Jitterbop Baby
TTITLE6=Tore Up
TTITLE7=Baby, Let's Play House
TTITLE8=Chat D'Gouttière (Stray Cat Strut)
TTITLE9=Ça Va (Bye-Bye, Baby)
TTITLE10=Ne Me Quitte Pas
TTITLE11=Coup Dur (Cold Shot)
TTITLE12=J'Oublie Toujours (I Keep Forgettin')
TTITLE13=S.O.S. D'Un Terrien En Detresse
EXTD=Ordernumber RHC-001\nProduziert von RHC and D.Mohrmann\nAufgenommen im April
EXTD=1997 im Tonstudio Mohrmann, Bochum
EXTT0=
EXTT1=
EXTT2=
EXTT3=
EXTT4=
EXTT5=
EXTT6=
EXTT7=
EXTT8=
EXTT9=
EXTT10=
EXTT11=
EXTT12=
EXTT13=
PLAYORDER=
